<svg width="17" height="17" viewBox="0 0 17 17" fill="none" xmlns="http://www.w3.org/2000/svg">
<path fill-rule="evenodd" clip-rule="evenodd" d="M13.4206 4.50004H11.4206V3.83337C11.4206 2.70004 10.5539 1.83337 9.42057 1.83337H6.75391C5.62057 1.83337 4.75391 2.70004 4.75391 3.83337V4.50004H2.75391C1.62057 4.50004 0.753906 5.36671 0.753906 6.50004V13.1667C0.753906 14.3 1.62057 15.1667 2.75391 15.1667H13.4206C14.5539 15.1667 15.4206 14.3 15.4206 13.1667V6.50004C15.4206 5.36671 14.5539 4.50004 13.4206 4.50004ZM6.08724 3.83337C6.08724 3.43337 6.35391 3.16671 6.75391 3.16671H9.42057C9.82057 3.16671 10.0872 3.43337 10.0872 3.83337V4.50004H6.08724V3.83337ZM10.0872 13.8334V5.83337H6.08724V13.8334H10.0872ZM2.08724 13.1667V6.50004C2.08724 6.10004 2.35391 5.83337 2.75391 5.83337H4.75391V13.8334H2.75391C2.35391 13.8334 2.08724 13.5667 2.08724 13.1667ZM13.4206 13.8334C13.8206 13.8334 14.0872 13.5667 14.0872 13.1667V6.50004C14.0872 6.10004 13.8206 5.83337 13.4206 5.83337H11.4206V13.8334H13.4206Z" fill="black"/>
<mask id="mask0_3199_66985" style="mask-type:luminance" maskUnits="userSpaceOnUse" x="0" y="1" width="16" height="15">
<path fill-rule="evenodd" clip-rule="evenodd" d="M13.4206 4.50004H11.4206V3.83337C11.4206 2.70004 10.5539 1.83337 9.42057 1.83337H6.75391C5.62057 1.83337 4.75391 2.70004 4.75391 3.83337V4.50004H2.75391C1.62057 4.50004 0.753906 5.36671 0.753906 6.50004V13.1667C0.753906 14.3 1.62057 15.1667 2.75391 15.1667H13.4206C14.5539 15.1667 15.4206 14.3 15.4206 13.1667V6.50004C15.4206 5.36671 14.5539 4.50004 13.4206 4.50004ZM6.08724 3.83337C6.08724 3.43337 6.35391 3.16671 6.75391 3.16671H9.42057C9.82057 3.16671 10.0872 3.43337 10.0872 3.83337V4.50004H6.08724V3.83337ZM10.0872 13.8334V5.83337H6.08724V13.8334H10.0872ZM2.08724 13.1667V6.50004C2.08724 6.10004 2.35391 5.83337 2.75391 5.83337H4.75391V13.8334H2.75391C2.35391 13.8334 2.08724 13.5667 2.08724 13.1667ZM13.4206 13.8334C13.8206 13.8334 14.0872 13.5667 14.0872 13.1667V6.50004C14.0872 6.10004 13.8206 5.83337 13.4206 5.83337H11.4206V13.8334H13.4206Z" fill="white"/>
</mask>
<g mask="url(#mask0_3199_66985)">
<rect x="0.0859375" y="0.5" width="16" height="16" fill="#6B717B"/>
</g>
</svg>
