<svg width="19" height="18" viewBox="0 0 19 18" fill="none" xmlns="http://www.w3.org/2000/svg">
<g clip-path="url(#clip0_3199_68122)">
<mask id="path-1-outside-1_3199_68122" maskUnits="userSpaceOnUse" x="-0.0703125" y="1.82227" width="18" height="15" fill="black">
<rect fill="white" x="-0.0703125" y="1.82227" width="18" height="15"/>
<path d="M17.1213 8.56402C16.8937 7.04365 16.2381 5.61943 15.2313 4.45777C14.9127 4.10209 14.5486 3.79002 14.1484 3.52964C13.5775 3.13662 12.915 2.89737 12.2247 2.83495C11.9697 2.81239 11.7129 2.81994 11.4597 2.85745H11.3584L9.84531 3.10495C9.68718 3.13243 9.53118 3.17097 9.37844 3.22027C9.17416 3.28386 8.9764 3.36673 8.78781 3.46777H2.33594C2.23714 3.46663 2.13911 3.48529 2.04765 3.52267C1.95618 3.56004 1.87313 3.61535 1.8034 3.68535C1.73366 3.75535 1.67866 3.8386 1.64163 3.93021C1.6046 4.02182 1.5863 4.11991 1.58781 4.2187V5.1187C1.58861 5.24866 1.62457 5.37597 1.69188 5.48714C1.61508 5.55582 1.55361 5.6399 1.51145 5.73391C1.4693 5.82791 1.4474 5.92974 1.44719 6.03277V6.92995C1.44901 6.9994 1.4594 7.06836 1.47812 7.13527C1.32128 7.17626 1.18241 7.26802 1.0832 7.39624C0.983988 7.52445 0.930009 7.6819 0.929688 7.84402V8.74402C0.930428 8.93922 1.0083 9.12622 1.14633 9.26425C1.28436 9.40228 1.47136 9.48015 1.66656 9.48089H2.33594C2.32137 9.53788 2.31381 9.59644 2.31344 9.65527V10.5553C2.31381 10.6141 2.32137 10.6726 2.33594 10.7296H2.18688C1.9907 10.7296 1.80256 10.8076 1.66384 10.9463C1.52512 11.085 1.44719 11.2732 1.44719 11.4693V12.375C1.44736 12.5411 1.505 12.7021 1.61031 12.8306C1.505 12.9602 1.44741 13.122 1.44719 13.289V14.1862C1.44719 14.3824 1.52512 14.5705 1.66384 14.7092C1.80256 14.848 1.9907 14.9259 2.18688 14.9259H8.61063C9.36969 15.6526 10.3726 16.0698 11.4231 16.0959H11.5131C11.6752 16.0941 11.8369 16.08 11.9969 16.0537L13.4791 15.8062H13.5269C13.8046 15.7609 14.0757 15.6816 14.3341 15.57C16.4631 14.6418 17.6388 11.7 17.1213 8.56402ZM2.15031 4.2187C2.15026 4.19483 2.15512 4.17119 2.16458 4.14927C2.17403 4.12734 2.18789 4.1076 2.2053 4.09125C2.2227 4.0749 2.24328 4.0623 2.26575 4.05423C2.28822 4.04616 2.31211 4.04279 2.33594 4.04433H7.98625C7.89625 4.12308 7.81188 4.20745 7.7275 4.29464L7.69938 4.3312C7.62625 4.40995 7.55594 4.49152 7.48844 4.57589C7.46313 4.60683 7.43781 4.64058 7.41531 4.67433C7.39281 4.70808 7.31125 4.80933 7.26344 4.88245C7.21563 4.95558 7.21281 4.9612 7.18469 5.00058C7.15656 5.03995 7.0975 5.1412 7.05531 5.21152C7.05531 5.23402 7.02719 5.25652 7.01594 5.27902H2.33594C2.3128 5.27939 2.28982 5.27515 2.26834 5.26656C2.24686 5.25796 2.2273 5.24518 2.21081 5.22895C2.19432 5.21272 2.18123 5.19337 2.17229 5.17203C2.16335 5.15069 2.15875 5.12778 2.15875 5.10464L2.15031 4.2187ZM2.00969 6.92995V6.03277C2.00969 5.98577 2.02836 5.94071 2.06158 5.90748C2.09481 5.87425 2.13988 5.85558 2.18688 5.85558H6.72344C6.64469 6.03277 6.57719 6.21839 6.51531 6.40402C6.49844 6.45745 6.48438 6.51089 6.4675 6.56152C6.42531 6.70495 6.38594 6.84277 6.35219 6.99464C6.35219 7.0312 6.3325 7.06214 6.32406 7.09589H2.18688C2.14177 7.09598 2.09832 7.07887 2.0654 7.04803C2.03248 7.0172 2.01255 6.97497 2.00969 6.92995ZM1.49219 8.74402V7.84402C1.49219 7.82112 1.4967 7.79844 1.50546 7.77729C1.51422 7.75613 1.52707 7.73691 1.54326 7.72072C1.55945 7.70452 1.57868 7.69168 1.59983 7.68292C1.62099 7.67415 1.64366 7.66964 1.66656 7.66964H6.22C6.21847 7.68742 6.21847 7.7053 6.22 7.72308C6.19188 7.90589 6.17219 8.09152 6.15813 8.28558C6.15953 8.30806 6.15953 8.3306 6.15813 8.35308V8.85652C6.15672 8.87993 6.15672 8.90341 6.15813 8.92683H1.66656C1.64294 8.92686 1.61955 8.92208 1.59782 8.9128C1.5761 8.90351 1.55649 8.88991 1.54018 8.87281C1.52387 8.85571 1.51121 8.83548 1.50296 8.81334C1.49471 8.7912 1.49104 8.76762 1.49219 8.74402ZM2.89844 10.5553V9.65527C2.89844 9.60902 2.91681 9.56467 2.94951 9.53197C2.98221 9.49926 3.02657 9.48089 3.07281 9.48089H6.16656C6.16656 9.54558 6.16656 9.61308 6.18344 9.67777C6.20031 9.74245 6.18344 9.78183 6.1975 9.83527C6.22692 10.1348 6.27293 10.4324 6.33531 10.7268H3.06156C3.01777 10.724 2.97666 10.7048 2.94643 10.673C2.91619 10.6412 2.89905 10.5991 2.89844 10.5553ZM2.00969 11.4693C2.00969 11.4223 2.02836 11.3773 2.06158 11.344C2.09481 11.3108 2.13988 11.2921 2.18688 11.2921H6.45906C6.46769 11.3255 6.47801 11.3583 6.49 11.3906C6.53313 11.5368 6.57813 11.6803 6.625 11.8209C6.64188 11.8715 6.65875 11.925 6.67844 11.9756C6.74594 12.1612 6.81906 12.3468 6.90063 12.5381C6.90184 12.5436 6.90184 12.5494 6.90063 12.555H2.18688C2.16337 12.555 2.1401 12.5503 2.11841 12.5412C2.09673 12.5321 2.07707 12.5188 2.06058 12.5021C2.04409 12.4853 2.0311 12.4654 2.02236 12.4436C2.01362 12.4218 2.00931 12.3985 2.00969 12.375V11.4693ZM2.18688 14.3578C2.13988 14.3578 2.09481 14.3391 2.06158 14.3059C2.02836 14.2726 2.00969 14.2276 2.00969 14.1806V13.2834C2.00969 13.2364 2.02836 13.1913 2.06158 13.1581C2.09481 13.1249 2.13988 13.1062 2.18688 13.1062H7.1875C7.255 13.2328 7.32813 13.3537 7.40125 13.4746L7.44063 13.5337C7.53063 13.6715 7.62063 13.815 7.72188 13.9331C7.73995 13.9614 7.75968 13.9886 7.78094 14.0146C7.86813 14.1328 7.96094 14.2481 8.06219 14.3578H2.18688ZM8.90594 14.4309C8.77693 14.3144 8.65396 14.1915 8.5375 14.0625C8.17081 13.6489 7.85801 13.1906 7.60656 12.6984C7.31705 12.1412 7.09606 11.5509 6.94844 10.9406C6.89219 10.724 6.84719 10.5018 6.80781 10.2628C6.74883 9.90735 6.71313 9.54846 6.70094 9.18839V8.7187C6.70418 8.43654 6.7239 8.15481 6.76 7.87495C6.76 7.80464 6.7825 7.73714 6.79094 7.66964C6.79938 7.60214 6.81344 7.52058 6.8275 7.44464C6.85844 7.28714 6.89219 7.13245 6.93156 6.98058C6.97094 6.8287 7.03 6.64308 7.08625 6.47995C7.17859 6.2165 7.28949 5.95991 7.41813 5.71214C7.46594 5.61652 7.51938 5.5237 7.57281 5.43089C7.91573 4.8455 8.4065 4.36055 8.99594 4.02464C9.16488 3.93001 9.34298 3.85274 9.5275 3.79402L9.36719 3.93745C8.92602 4.37782 8.56948 4.89547 8.31531 5.46464C8.03846 6.06453 7.84904 6.701 7.75281 7.35464C7.65739 7.97044 7.63286 8.59514 7.67969 9.21652C7.69766 9.51236 7.73052 9.80711 7.77813 10.0996C7.83385 10.4326 7.90803 10.7621 8.00031 11.0868C8.17986 11.7425 8.44162 12.3728 8.77938 12.9628C9.17887 13.69 9.71455 14.3336 10.3572 14.8584C10.6397 15.0866 10.9473 15.282 11.2741 15.4406L11.4653 15.5278C10.5016 15.5107 9.58291 15.117 8.90594 14.4309ZM14.1063 15.0384C13.8865 15.1327 13.656 15.1997 13.42 15.2381C13.3441 15.2381 13.2625 15.2578 13.1809 15.2662H13.0628C12.9457 15.2732 12.8283 15.2732 12.7113 15.2662C12.2946 15.2298 11.8883 15.1164 11.5131 14.9315C11.2255 14.7894 10.9539 14.6169 10.7031 14.4168C10.119 13.9341 9.63144 13.3453 9.26594 12.6815C8.9496 12.1318 8.7048 11.5439 8.5375 10.9321C8.45079 10.628 8.38224 10.3191 8.33219 10.0068C8.28595 9.72747 8.25496 9.44581 8.23938 9.16308C8.19692 8.57898 8.2224 7.99193 8.31531 7.4137C8.40246 6.81227 8.57679 6.22674 8.83281 5.67558C9.06001 5.16651 9.37837 4.70326 9.77219 4.3087C9.89594 4.18495 10.0338 4.07245 10.1209 3.99933H10.1603C10.3565 3.85357 10.5689 3.73088 10.7931 3.6337C10.9052 3.58626 11.0197 3.54495 11.1363 3.50995H11.2038C11.2961 3.48279 11.39 3.46119 11.485 3.44527C11.5037 3.44282 11.5226 3.44282 11.5413 3.44527C11.7514 3.40366 11.9657 3.38761 12.1797 3.39745C12.7764 3.45124 13.3491 3.65859 13.8419 3.99933C14.1992 4.23692 14.5235 4.52062 14.8066 4.84308C15.7403 5.92444 16.347 7.24914 16.5559 8.66245C17.0425 11.5312 16.0075 14.2256 14.1063 15.0384Z"/>
</mask>
<path d="M17.1213 8.56402C16.8937 7.04365 16.2381 5.61943 15.2313 4.45777C14.9127 4.10209 14.5486 3.79002 14.1484 3.52964C13.5775 3.13662 12.915 2.89737 12.2247 2.83495C11.9697 2.81239 11.7129 2.81994 11.4597 2.85745H11.3584L9.84531 3.10495C9.68718 3.13243 9.53118 3.17097 9.37844 3.22027C9.17416 3.28386 8.9764 3.36673 8.78781 3.46777H2.33594C2.23714 3.46663 2.13911 3.48529 2.04765 3.52267C1.95618 3.56004 1.87313 3.61535 1.8034 3.68535C1.73366 3.75535 1.67866 3.8386 1.64163 3.93021C1.6046 4.02182 1.5863 4.11991 1.58781 4.2187V5.1187C1.58861 5.24866 1.62457 5.37597 1.69188 5.48714C1.61508 5.55582 1.55361 5.6399 1.51145 5.73391C1.4693 5.82791 1.4474 5.92974 1.44719 6.03277V6.92995C1.44901 6.9994 1.4594 7.06836 1.47812 7.13527C1.32128 7.17626 1.18241 7.26802 1.0832 7.39624C0.983988 7.52445 0.930009 7.6819 0.929688 7.84402V8.74402C0.930428 8.93922 1.0083 9.12622 1.14633 9.26425C1.28436 9.40228 1.47136 9.48015 1.66656 9.48089H2.33594C2.32137 9.53788 2.31381 9.59644 2.31344 9.65527V10.5553C2.31381 10.6141 2.32137 10.6726 2.33594 10.7296H2.18688C1.9907 10.7296 1.80256 10.8076 1.66384 10.9463C1.52512 11.085 1.44719 11.2732 1.44719 11.4693V12.375C1.44736 12.5411 1.505 12.7021 1.61031 12.8306C1.505 12.9602 1.44741 13.122 1.44719 13.289V14.1862C1.44719 14.3824 1.52512 14.5705 1.66384 14.7092C1.80256 14.848 1.9907 14.9259 2.18688 14.9259H8.61063C9.36969 15.6526 10.3726 16.0698 11.4231 16.0959H11.5131C11.6752 16.0941 11.8369 16.08 11.9969 16.0537L13.4791 15.8062H13.5269C13.8046 15.7609 14.0757 15.6816 14.3341 15.57C16.4631 14.6418 17.6388 11.7 17.1213 8.56402ZM2.15031 4.2187C2.15026 4.19483 2.15512 4.17119 2.16458 4.14927C2.17403 4.12734 2.18789 4.1076 2.2053 4.09125C2.2227 4.0749 2.24328 4.0623 2.26575 4.05423C2.28822 4.04616 2.31211 4.04279 2.33594 4.04433H7.98625C7.89625 4.12308 7.81188 4.20745 7.7275 4.29464L7.69938 4.3312C7.62625 4.40995 7.55594 4.49152 7.48844 4.57589C7.46313 4.60683 7.43781 4.64058 7.41531 4.67433C7.39281 4.70808 7.31125 4.80933 7.26344 4.88245C7.21563 4.95558 7.21281 4.9612 7.18469 5.00058C7.15656 5.03995 7.0975 5.1412 7.05531 5.21152C7.05531 5.23402 7.02719 5.25652 7.01594 5.27902H2.33594C2.3128 5.27939 2.28982 5.27515 2.26834 5.26656C2.24686 5.25796 2.2273 5.24518 2.21081 5.22895C2.19432 5.21272 2.18123 5.19337 2.17229 5.17203C2.16335 5.15069 2.15875 5.12778 2.15875 5.10464L2.15031 4.2187ZM2.00969 6.92995V6.03277C2.00969 5.98577 2.02836 5.94071 2.06158 5.90748C2.09481 5.87425 2.13988 5.85558 2.18688 5.85558H6.72344C6.64469 6.03277 6.57719 6.21839 6.51531 6.40402C6.49844 6.45745 6.48438 6.51089 6.4675 6.56152C6.42531 6.70495 6.38594 6.84277 6.35219 6.99464C6.35219 7.0312 6.3325 7.06214 6.32406 7.09589H2.18688C2.14177 7.09598 2.09832 7.07887 2.0654 7.04803C2.03248 7.0172 2.01255 6.97497 2.00969 6.92995ZM1.49219 8.74402V7.84402C1.49219 7.82112 1.4967 7.79844 1.50546 7.77729C1.51422 7.75613 1.52707 7.73691 1.54326 7.72072C1.55945 7.70452 1.57868 7.69168 1.59983 7.68292C1.62099 7.67415 1.64366 7.66964 1.66656 7.66964H6.22C6.21847 7.68742 6.21847 7.7053 6.22 7.72308C6.19188 7.90589 6.17219 8.09152 6.15813 8.28558C6.15953 8.30806 6.15953 8.3306 6.15813 8.35308V8.85652C6.15672 8.87993 6.15672 8.90341 6.15813 8.92683H1.66656C1.64294 8.92686 1.61955 8.92208 1.59782 8.9128C1.5761 8.90351 1.55649 8.88991 1.54018 8.87281C1.52387 8.85571 1.51121 8.83548 1.50296 8.81334C1.49471 8.7912 1.49104 8.76762 1.49219 8.74402ZM2.89844 10.5553V9.65527C2.89844 9.60902 2.91681 9.56467 2.94951 9.53197C2.98221 9.49926 3.02657 9.48089 3.07281 9.48089H6.16656C6.16656 9.54558 6.16656 9.61308 6.18344 9.67777C6.20031 9.74245 6.18344 9.78183 6.1975 9.83527C6.22692 10.1348 6.27293 10.4324 6.33531 10.7268H3.06156C3.01777 10.724 2.97666 10.7048 2.94643 10.673C2.91619 10.6412 2.89905 10.5991 2.89844 10.5553ZM2.00969 11.4693C2.00969 11.4223 2.02836 11.3773 2.06158 11.344C2.09481 11.3108 2.13988 11.2921 2.18688 11.2921H6.45906C6.46769 11.3255 6.47801 11.3583 6.49 11.3906C6.53313 11.5368 6.57813 11.6803 6.625 11.8209C6.64188 11.8715 6.65875 11.925 6.67844 11.9756C6.74594 12.1612 6.81906 12.3468 6.90063 12.5381C6.90184 12.5436 6.90184 12.5494 6.90063 12.555H2.18688C2.16337 12.555 2.1401 12.5503 2.11841 12.5412C2.09673 12.5321 2.07707 12.5188 2.06058 12.5021C2.04409 12.4853 2.0311 12.4654 2.02236 12.4436C2.01362 12.4218 2.00931 12.3985 2.00969 12.375V11.4693ZM2.18688 14.3578C2.13988 14.3578 2.09481 14.3391 2.06158 14.3059C2.02836 14.2726 2.00969 14.2276 2.00969 14.1806V13.2834C2.00969 13.2364 2.02836 13.1913 2.06158 13.1581C2.09481 13.1249 2.13988 13.1062 2.18688 13.1062H7.1875C7.255 13.2328 7.32813 13.3537 7.40125 13.4746L7.44063 13.5337C7.53063 13.6715 7.62063 13.815 7.72188 13.9331C7.73995 13.9614 7.75968 13.9886 7.78094 14.0146C7.86813 14.1328 7.96094 14.2481 8.06219 14.3578H2.18688ZM8.90594 14.4309C8.77693 14.3144 8.65396 14.1915 8.5375 14.0625C8.17081 13.6489 7.85801 13.1906 7.60656 12.6984C7.31705 12.1412 7.09606 11.5509 6.94844 10.9406C6.89219 10.724 6.84719 10.5018 6.80781 10.2628C6.74883 9.90735 6.71313 9.54846 6.70094 9.18839V8.7187C6.70418 8.43654 6.7239 8.15481 6.76 7.87495C6.76 7.80464 6.7825 7.73714 6.79094 7.66964C6.79938 7.60214 6.81344 7.52058 6.8275 7.44464C6.85844 7.28714 6.89219 7.13245 6.93156 6.98058C6.97094 6.8287 7.03 6.64308 7.08625 6.47995C7.17859 6.2165 7.28949 5.95991 7.41813 5.71214C7.46594 5.61652 7.51938 5.5237 7.57281 5.43089C7.91573 4.8455 8.4065 4.36055 8.99594 4.02464C9.16488 3.93001 9.34298 3.85274 9.5275 3.79402L9.36719 3.93745C8.92602 4.37782 8.56948 4.89547 8.31531 5.46464C8.03846 6.06453 7.84904 6.701 7.75281 7.35464C7.65739 7.97044 7.63286 8.59514 7.67969 9.21652C7.69766 9.51236 7.73052 9.80711 7.77813 10.0996C7.83385 10.4326 7.90803 10.7621 8.00031 11.0868C8.17986 11.7425 8.44162 12.3728 8.77938 12.9628C9.17887 13.69 9.71455 14.3336 10.3572 14.8584C10.6397 15.0866 10.9473 15.282 11.2741 15.4406L11.4653 15.5278C10.5016 15.5107 9.58291 15.117 8.90594 14.4309ZM14.1063 15.0384C13.8865 15.1327 13.656 15.1997 13.42 15.2381C13.3441 15.2381 13.2625 15.2578 13.1809 15.2662H13.0628C12.9457 15.2732 12.8283 15.2732 12.7113 15.2662C12.2946 15.2298 11.8883 15.1164 11.5131 14.9315C11.2255 14.7894 10.9539 14.6169 10.7031 14.4168C10.119 13.9341 9.63144 13.3453 9.26594 12.6815C8.9496 12.1318 8.7048 11.5439 8.5375 10.9321C8.45079 10.628 8.38224 10.3191 8.33219 10.0068C8.28595 9.72747 8.25496 9.44581 8.23938 9.16308C8.19692 8.57898 8.2224 7.99193 8.31531 7.4137C8.40246 6.81227 8.57679 6.22674 8.83281 5.67558C9.06001 5.16651 9.37837 4.70326 9.77219 4.3087C9.89594 4.18495 10.0338 4.07245 10.1209 3.99933H10.1603C10.3565 3.85357 10.5689 3.73088 10.7931 3.6337C10.9052 3.58626 11.0197 3.54495 11.1363 3.50995H11.2038C11.2961 3.48279 11.39 3.46119 11.485 3.44527C11.5037 3.44282 11.5226 3.44282 11.5413 3.44527C11.7514 3.40366 11.9657 3.38761 12.1797 3.39745C12.7764 3.45124 13.3491 3.65859 13.8419 3.99933C14.1992 4.23692 14.5235 4.52062 14.8066 4.84308C15.7403 5.92444 16.347 7.24914 16.5559 8.66245C17.0425 11.5312 16.0075 14.2256 14.1063 15.0384Z" fill="#2563EB"/>
<path d="M17.1213 8.56402C16.8937 7.04365 16.2381 5.61943 15.2313 4.45777C14.9127 4.10209 14.5486 3.79002 14.1484 3.52964C13.5775 3.13662 12.915 2.89737 12.2247 2.83495C11.9697 2.81239 11.7129 2.81994 11.4597 2.85745H11.3584L9.84531 3.10495C9.68718 3.13243 9.53118 3.17097 9.37844 3.22027C9.17416 3.28386 8.9764 3.36673 8.78781 3.46777H2.33594C2.23714 3.46663 2.13911 3.48529 2.04765 3.52267C1.95618 3.56004 1.87313 3.61535 1.8034 3.68535C1.73366 3.75535 1.67866 3.8386 1.64163 3.93021C1.6046 4.02182 1.5863 4.11991 1.58781 4.2187V5.1187C1.58861 5.24866 1.62457 5.37597 1.69188 5.48714C1.61508 5.55582 1.55361 5.6399 1.51145 5.73391C1.4693 5.82791 1.4474 5.92974 1.44719 6.03277V6.92995C1.44901 6.9994 1.4594 7.06836 1.47812 7.13527C1.32128 7.17626 1.18241 7.26802 1.0832 7.39624C0.983988 7.52445 0.930009 7.6819 0.929688 7.84402V8.74402C0.930428 8.93922 1.0083 9.12622 1.14633 9.26425C1.28436 9.40228 1.47136 9.48015 1.66656 9.48089H2.33594C2.32137 9.53788 2.31381 9.59644 2.31344 9.65527V10.5553C2.31381 10.6141 2.32137 10.6726 2.33594 10.7296H2.18688C1.9907 10.7296 1.80256 10.8076 1.66384 10.9463C1.52512 11.085 1.44719 11.2732 1.44719 11.4693V12.375C1.44736 12.5411 1.505 12.7021 1.61031 12.8306C1.505 12.9602 1.44741 13.122 1.44719 13.289V14.1862C1.44719 14.3824 1.52512 14.5705 1.66384 14.7092C1.80256 14.848 1.9907 14.9259 2.18688 14.9259H8.61063C9.36969 15.6526 10.3726 16.0698 11.4231 16.0959H11.5131C11.6752 16.0941 11.8369 16.08 11.9969 16.0537L13.4791 15.8062H13.5269C13.8046 15.7609 14.0757 15.6816 14.3341 15.57C16.4631 14.6418 17.6388 11.7 17.1213 8.56402ZM2.15031 4.2187C2.15026 4.19483 2.15512 4.17119 2.16458 4.14927C2.17403 4.12734 2.18789 4.1076 2.2053 4.09125C2.2227 4.0749 2.24328 4.0623 2.26575 4.05423C2.28822 4.04616 2.31211 4.04279 2.33594 4.04433H7.98625C7.89625 4.12308 7.81188 4.20745 7.7275 4.29464L7.69938 4.3312C7.62625 4.40995 7.55594 4.49152 7.48844 4.57589C7.46313 4.60683 7.43781 4.64058 7.41531 4.67433C7.39281 4.70808 7.31125 4.80933 7.26344 4.88245C7.21563 4.95558 7.21281 4.9612 7.18469 5.00058C7.15656 5.03995 7.0975 5.1412 7.05531 5.21152C7.05531 5.23402 7.02719 5.25652 7.01594 5.27902H2.33594C2.3128 5.27939 2.28982 5.27515 2.26834 5.26656C2.24686 5.25796 2.2273 5.24518 2.21081 5.22895C2.19432 5.21272 2.18123 5.19337 2.17229 5.17203C2.16335 5.15069 2.15875 5.12778 2.15875 5.10464L2.15031 4.2187ZM2.00969 6.92995V6.03277C2.00969 5.98577 2.02836 5.94071 2.06158 5.90748C2.09481 5.87425 2.13988 5.85558 2.18688 5.85558H6.72344C6.64469 6.03277 6.57719 6.21839 6.51531 6.40402C6.49844 6.45745 6.48438 6.51089 6.4675 6.56152C6.42531 6.70495 6.38594 6.84277 6.35219 6.99464C6.35219 7.0312 6.3325 7.06214 6.32406 7.09589H2.18688C2.14177 7.09598 2.09832 7.07887 2.0654 7.04803C2.03248 7.0172 2.01255 6.97497 2.00969 6.92995ZM1.49219 8.74402V7.84402C1.49219 7.82112 1.4967 7.79844 1.50546 7.77729C1.51422 7.75613 1.52707 7.73691 1.54326 7.72072C1.55945 7.70452 1.57868 7.69168 1.59983 7.68292C1.62099 7.67415 1.64366 7.66964 1.66656 7.66964H6.22C6.21847 7.68742 6.21847 7.7053 6.22 7.72308C6.19188 7.90589 6.17219 8.09152 6.15813 8.28558C6.15953 8.30806 6.15953 8.3306 6.15813 8.35308V8.85652C6.15672 8.87993 6.15672 8.90341 6.15813 8.92683H1.66656C1.64294 8.92686 1.61955 8.92208 1.59782 8.9128C1.5761 8.90351 1.55649 8.88991 1.54018 8.87281C1.52387 8.85571 1.51121 8.83548 1.50296 8.81334C1.49471 8.7912 1.49104 8.76762 1.49219 8.74402ZM2.89844 10.5553V9.65527C2.89844 9.60902 2.91681 9.56467 2.94951 9.53197C2.98221 9.49926 3.02657 9.48089 3.07281 9.48089H6.16656C6.16656 9.54558 6.16656 9.61308 6.18344 9.67777C6.20031 9.74245 6.18344 9.78183 6.1975 9.83527C6.22692 10.1348 6.27293 10.4324 6.33531 10.7268H3.06156C3.01777 10.724 2.97666 10.7048 2.94643 10.673C2.91619 10.6412 2.89905 10.5991 2.89844 10.5553ZM2.00969 11.4693C2.00969 11.4223 2.02836 11.3773 2.06158 11.344C2.09481 11.3108 2.13988 11.2921 2.18688 11.2921H6.45906C6.46769 11.3255 6.47801 11.3583 6.49 11.3906C6.53313 11.5368 6.57813 11.6803 6.625 11.8209C6.64188 11.8715 6.65875 11.925 6.67844 11.9756C6.74594 12.1612 6.81906 12.3468 6.90063 12.5381C6.90184 12.5436 6.90184 12.5494 6.90063 12.555H2.18688C2.16337 12.555 2.1401 12.5503 2.11841 12.5412C2.09673 12.5321 2.07707 12.5188 2.06058 12.5021C2.04409 12.4853 2.0311 12.4654 2.02236 12.4436C2.01362 12.4218 2.00931 12.3985 2.00969 12.375V11.4693ZM2.18688 14.3578C2.13988 14.3578 2.09481 14.3391 2.06158 14.3059C2.02836 14.2726 2.00969 14.2276 2.00969 14.1806V13.2834C2.00969 13.2364 2.02836 13.1913 2.06158 13.1581C2.09481 13.1249 2.13988 13.1062 2.18688 13.1062H7.1875C7.255 13.2328 7.32813 13.3537 7.40125 13.4746L7.44063 13.5337C7.53063 13.6715 7.62063 13.815 7.72188 13.9331C7.73995 13.9614 7.75968 13.9886 7.78094 14.0146C7.86813 14.1328 7.96094 14.2481 8.06219 14.3578H2.18688ZM8.90594 14.4309C8.77693 14.3144 8.65396 14.1915 8.5375 14.0625C8.17081 13.6489 7.85801 13.1906 7.60656 12.6984C7.31705 12.1412 7.09606 11.5509 6.94844 10.9406C6.89219 10.724 6.84719 10.5018 6.80781 10.2628C6.74883 9.90735 6.71313 9.54846 6.70094 9.18839V8.7187C6.70418 8.43654 6.7239 8.15481 6.76 7.87495C6.76 7.80464 6.7825 7.73714 6.79094 7.66964C6.79938 7.60214 6.81344 7.52058 6.8275 7.44464C6.85844 7.28714 6.89219 7.13245 6.93156 6.98058C6.97094 6.8287 7.03 6.64308 7.08625 6.47995C7.17859 6.2165 7.28949 5.95991 7.41813 5.71214C7.46594 5.61652 7.51938 5.5237 7.57281 5.43089C7.91573 4.8455 8.4065 4.36055 8.99594 4.02464C9.16488 3.93001 9.34298 3.85274 9.5275 3.79402L9.36719 3.93745C8.92602 4.37782 8.56948 4.89547 8.31531 5.46464C8.03846 6.06453 7.84904 6.701 7.75281 7.35464C7.65739 7.97044 7.63286 8.59514 7.67969 9.21652C7.69766 9.51236 7.73052 9.80711 7.77813 10.0996C7.83385 10.4326 7.90803 10.7621 8.00031 11.0868C8.17986 11.7425 8.44162 12.3728 8.77938 12.9628C9.17887 13.69 9.71455 14.3336 10.3572 14.8584C10.6397 15.0866 10.9473 15.282 11.2741 15.4406L11.4653 15.5278C10.5016 15.5107 9.58291 15.117 8.90594 14.4309ZM14.1063 15.0384C13.8865 15.1327 13.656 15.1997 13.42 15.2381C13.3441 15.2381 13.2625 15.2578 13.1809 15.2662H13.0628C12.9457 15.2732 12.8283 15.2732 12.7113 15.2662C12.2946 15.2298 11.8883 15.1164 11.5131 14.9315C11.2255 14.7894 10.9539 14.6169 10.7031 14.4168C10.119 13.9341 9.63144 13.3453 9.26594 12.6815C8.9496 12.1318 8.7048 11.5439 8.5375 10.9321C8.45079 10.628 8.38224 10.3191 8.33219 10.0068C8.28595 9.72747 8.25496 9.44581 8.23938 9.16308C8.19692 8.57898 8.2224 7.99193 8.31531 7.4137C8.40246 6.81227 8.57679 6.22674 8.83281 5.67558C9.06001 5.16651 9.37837 4.70326 9.77219 4.3087C9.89594 4.18495 10.0338 4.07245 10.1209 3.99933H10.1603C10.3565 3.85357 10.5689 3.73088 10.7931 3.6337C10.9052 3.58626 11.0197 3.54495 11.1363 3.50995H11.2038C11.2961 3.48279 11.39 3.46119 11.485 3.44527C11.5037 3.44282 11.5226 3.44282 11.5413 3.44527C11.7514 3.40366 11.9657 3.38761 12.1797 3.39745C12.7764 3.45124 13.3491 3.65859 13.8419 3.99933C14.1992 4.23692 14.5235 4.52062 14.8066 4.84308C15.7403 5.92444 16.347 7.24914 16.5559 8.66245C17.0425 11.5312 16.0075 14.2256 14.1063 15.0384Z" stroke="#2563EB" stroke-width="0.6" mask="url(#path-1-outside-1_3199_68122)"/>
<path d="M12.7006 8.86422L12.7006 8.86425C12.9009 8.85298 13.1012 8.88518 13.2879 8.95865C13.4745 9.03211 13.6431 9.1451 13.7819 9.28985L13.7823 9.29026C14.0655 9.58761 14.236 9.97439 14.2647 10.384C14.2933 10.7936 14.1781 11.2003 13.9391 11.5341L13.938 11.5357L13.938 11.5357C13.7861 11.7422 13.5818 11.9034 13.3472 12.0033L13.3818 12.5075C13.3818 12.5077 13.3818 12.5078 13.3818 12.5079L13.3818 12.5081L12.7006 8.86422ZM12.7006 8.86422L12.6977 8.86443M12.7006 8.86422L12.6977 8.86443M12.6977 8.86443C12.3986 8.88697 12.0843 8.59514 12.0514 8.14252C12.0192 7.69897 12.2958 7.36798 12.5847 7.3418C12.7626 7.35173 12.93 7.42975 13.0521 7.55988C13.1761 7.69214 13.2435 7.86771 13.2397 8.04899L13.2391 8.04898L13.24 8.06261C13.248 8.17689 13.3011 8.2833 13.3875 8.35845C13.474 8.4336 13.5868 8.47133 13.7011 8.46333C13.8153 8.45533 13.9218 8.40226 13.9969 8.3158C14.0714 8.2301 14.1091 8.11854 14.102 8.0053C14.0899 7.65311 13.962 7.31472 13.738 7.0426C13.5374 6.79889 13.2699 6.62056 12.9696 6.52881L12.9402 6.09299L12.9402 6.0926C12.9363 6.03601 12.9212 5.98076 12.8959 5.93C12.8706 5.87924 12.8355 5.83396 12.7927 5.79675C12.7499 5.75954 12.7001 5.73113 12.6464 5.71313C12.5926 5.69514 12.5358 5.68791 12.4792 5.69187C12.4226 5.69584 12.3673 5.7109 12.3166 5.73622C12.2658 5.76153 12.2205 5.79659 12.1833 5.83941C12.1461 5.88222 12.1177 5.93194 12.0997 5.98573C12.0817 6.03952 12.0745 6.09633 12.0784 6.15292L12.0785 6.1533L12.11 6.58815C11.8238 6.71866 11.5819 6.93142 11.4157 7.20047C11.2308 7.49984 11.1503 7.85194 11.1866 8.20178C11.1933 8.59298 11.347 8.96745 11.6174 9.25047C11.8895 9.53523 12.2594 9.70626 12.6525 9.72907L12.6525 9.72932H12.6612H12.7428V9.72956L12.7512 9.72908C12.8276 9.72478 12.904 9.7376 12.9748 9.7666C13.0456 9.7956 13.109 9.84005 13.1605 9.89671L13.1604 9.89677L13.1641 9.90057C13.3076 10.0478 13.3925 10.2423 13.403 10.4476L13.4029 10.4476L13.4033 10.4528C13.4209 10.6571 13.3648 10.8609 13.2453 11.0275L13.245 11.0279C13.2006 11.0902 13.1431 11.1421 13.0766 11.1799C13.0128 11.2162 12.9421 11.2386 12.8691 11.2459M12.6977 8.86443L11.3526 10.5826M12.065 10.5356C12.0603 10.7561 12.1422 10.9696 12.2931 11.1304C12.444 11.2913 12.6518 11.3867 12.8721 11.3962M12.065 10.5356L13.5528 10.4399C13.5734 10.6799 13.5075 10.9193 13.3671 11.1149C13.3101 11.1951 13.2362 11.2617 13.1507 11.3103C13.0652 11.3589 12.9702 11.3882 12.8721 11.3962M12.065 10.5356C12.0597 10.461 12.0251 10.3915 11.9687 10.3425L12.065 10.5356ZM12.8721 11.3962L12.8786 11.2463C12.8755 11.2462 12.8723 11.246 12.8691 11.2459M12.8721 11.3962L12.86 11.2467C12.863 11.2464 12.8661 11.2462 12.8691 11.2459M12.8691 11.2459C12.6915 11.2358 12.5244 11.1578 12.4025 11.0278C12.2785 10.8956 12.2111 10.72 12.2149 10.5387L12.2155 10.5387L12.2146 10.5251C12.2066 10.4108 12.1535 10.3044 12.0671 10.2292C11.9806 10.1541 11.8678 10.1164 11.7535 10.1244C11.6393 10.1324 11.5328 10.1854 11.4577 10.2719C11.3832 10.3576 11.3455 10.4693 11.3526 10.5826M11.3526 10.5826C11.3653 10.9343 11.4936 11.272 11.7175 11.5435C11.918 11.7867 12.1853 11.9645 12.4851 12.0561L12.52 12.568L12.52 12.5683C12.5277 12.6773 12.5765 12.7794 12.6565 12.8539C12.7365 12.9283 12.8418 12.9695 12.951 12.9693H12.9509V12.8193L12.9513 12.9693L11.3526 10.5826Z" fill="#2563EB" stroke="#2563EB" stroke-width="0.3"/>
</g>
<defs>
<clipPath id="clip0_3199_68122">
<rect width="18" height="18" fill="white" transform="translate(0.0859375)"/>
</clipPath>
</defs>
</svg>
