<svg width="25" height="24" viewBox="0 0 25 24" fill="none" xmlns="http://www.w3.org/2000/svg">
<circle cx="12.0859" cy="12" r="12" fill="#00CFE8" fill-opacity="0.12"/>
<path fill-rule="evenodd" clip-rule="evenodd" d="M10.3359 7C8.93594 7 7.83594 8.1 7.83594 9.5C7.83594 10.9 8.93594 12 10.3359 12C11.7359 12 12.8359 10.9 12.8359 9.5C12.8359 8.1 11.7359 7 10.3359 7ZM14.5859 16.5V15.5C14.5859 14.1 13.4859 13 12.0859 13H8.58594C7.18594 13 6.08594 14.1 6.08594 15.5V16.5C6.08594 16.8 6.28594 17 6.58594 17C6.88594 17 7.08594 16.8 7.08594 16.5V15.5C7.08594 14.65 7.73594 14 8.58594 14H12.0859C12.9359 14 13.5859 14.65 13.5859 15.5V16.5C13.5859 16.8 13.7859 17 14.0859 17C14.3859 17 14.5859 16.8 14.5859 16.5ZM8.83594 9.5C8.83594 10.35 9.48594 11 10.3359 11C11.1859 11 11.8359 10.35 11.8359 9.5C11.8359 8.65 11.1859 8 10.3359 8C9.48594 8 8.83594 8.65 8.83594 9.5ZM17.2359 10.15C17.4359 9.95 17.7359 9.95 17.9359 10.15C18.1359 10.35 18.1359 10.65 17.9359 10.85L15.9359 12.85C15.8359 12.95 15.6859 13 15.5859 13C15.4859 13 15.3359 12.95 15.2359 12.85L14.2359 11.85C14.0359 11.65 14.0359 11.35 14.2359 11.15C14.4359 10.95 14.7359 10.95 14.9359 11.15L15.5859 11.8L17.2359 10.15Z" fill="black"/>
<mask id="mask0_3199_68217" style="mask-type:luminance" maskUnits="userSpaceOnUse" x="6" y="7" width="13" height="10">
<path fill-rule="evenodd" clip-rule="evenodd" d="M10.3359 7C8.93594 7 7.83594 8.1 7.83594 9.5C7.83594 10.9 8.93594 12 10.3359 12C11.7359 12 12.8359 10.9 12.8359 9.5C12.8359 8.1 11.7359 7 10.3359 7ZM14.5859 16.5V15.5C14.5859 14.1 13.4859 13 12.0859 13H8.58594C7.18594 13 6.08594 14.1 6.08594 15.5V16.5C6.08594 16.8 6.28594 17 6.58594 17C6.88594 17 7.08594 16.8 7.08594 16.5V15.5C7.08594 14.65 7.73594 14 8.58594 14H12.0859C12.9359 14 13.5859 14.65 13.5859 15.5V16.5C13.5859 16.8 13.7859 17 14.0859 17C14.3859 17 14.5859 16.8 14.5859 16.5ZM8.83594 9.5C8.83594 10.35 9.48594 11 10.3359 11C11.1859 11 11.8359 10.35 11.8359 9.5C11.8359 8.65 11.1859 8 10.3359 8C9.48594 8 8.83594 8.65 8.83594 9.5ZM17.2359 10.15C17.4359 9.95 17.7359 9.95 17.9359 10.15C18.1359 10.35 18.1359 10.65 17.9359 10.85L15.9359 12.85C15.8359 12.95 15.6859 13 15.5859 13C15.4859 13 15.3359 12.95 15.2359 12.85L14.2359 11.85C14.0359 11.65 14.0359 11.35 14.2359 11.15C14.4359 10.95 14.7359 10.95 14.9359 11.15L15.5859 11.8L17.2359 10.15Z" fill="white"/>
</mask>
<g mask="url(#mask0_3199_68217)">
<rect x="6.08594" y="6" width="12" height="12" fill="#25C6EB"/>
</g>
</svg>
