<svg width="25" height="24" viewBox="0 0 25 24" fill="none" xmlns="http://www.w3.org/2000/svg">
<circle cx="12.0859" cy="12" r="12" fill="#2563EB"/>
<path fill-rule="evenodd" clip-rule="evenodd" d="M12.6259 12.3472L12.8372 12.5502C12.7286 12.662 12.591 12.7411 12.4399 12.7785C12.1447 12.8474 11.874 12.7932 11.6382 12.5979C11.4894 12.4736 11.39 12.2998 11.3582 12.1083C11.3171 11.9135 11.3353 11.7109 11.4105 11.5266C11.5312 11.2394 11.7477 11.0678 12.0541 11.0158C12.1834 10.9907 12.3166 10.9956 12.4437 11.0301C12.5707 11.0647 12.6882 11.1279 12.7871 11.2151C12.7978 11.2241 12.8079 11.2337 12.8179 11.2432C12.823 11.248 12.8281 11.2528 12.8331 11.2575L12.6284 11.4633C12.6176 11.4539 12.6055 11.4435 12.5936 11.4333C12.5899 11.4301 12.5857 11.4265 12.5821 11.4234C12.4685 11.3324 12.3252 11.2872 12.1801 11.2968C12.0589 11.2998 11.9419 11.342 11.8466 11.4172C11.7439 11.5009 11.6751 11.6191 11.6528 11.7499C11.6226 11.8845 11.6326 12.025 11.6817 12.1538C11.7645 12.3597 11.9185 12.4772 12.1372 12.5066C12.2245 12.52 12.3138 12.5129 12.3979 12.4858C12.482 12.4588 12.5587 12.4125 12.6219 12.3506L12.6259 12.3472ZM9.74635 12.2532C9.74635 12.5805 9.49075 12.7588 9.21568 12.7588C8.92114 12.7515 8.68745 12.5805 8.68259 12.2605H8.96739C8.97226 12.4022 9.0891 12.473 9.21568 12.473C9.34713 12.473 9.46398 12.3875 9.46398 12.2532C9.46398 12.109 9.33009 12.0211 9.21568 12.0162C9.20108 12.0162 9.08424 12.0162 8.96009 11.96C8.78239 11.877 8.68259 11.7255 8.68259 11.5228C8.68259 11.1979 8.94061 11 9.21568 11C9.51023 11 9.73661 11.2003 9.74148 11.491H9.45911C9.45424 11.3493 9.3447 11.2858 9.21568 11.2858C9.0818 11.2858 8.96739 11.364 8.96739 11.5228C8.96739 11.6645 9.0891 11.7402 9.21568 11.7402C9.22785 11.7402 9.34713 11.7402 9.46884 11.7964C9.64898 11.8794 9.74635 12.0504 9.74635 12.2532ZM4.37074 12.4486V11.0244H4.08594V12.7344H5.00121V12.4486H4.37074ZM6.51525 11.3102V11.0244H5.37846V12.7344H6.51525V12.4486H5.66327V12.0211H6.37163V11.7377H5.66327V11.3102H6.51525ZM6.73893 11.0244H7.73697V11.2858H7.37913V12.7344H7.09676V11.2858H6.73893V11.0244ZM7.95069 11.6107V11.0244L8.2428 11.0244V11.6107L7.95069 11.6107ZM14.7318 11.0288V12.7791L14.7347 12.7798C14.7369 12.7803 14.7391 12.7808 14.7415 12.781C14.7897 12.7804 14.8378 12.7808 14.8859 12.7811C15.0096 12.7821 15.1328 12.783 15.256 12.7673C15.3609 12.7567 15.4639 12.7325 15.5625 12.6952C15.7858 12.6035 15.9414 12.4463 16.0092 12.2131C16.0647 12.0198 16.0674 11.8151 16.017 11.6205C15.9923 11.5054 15.9388 11.3985 15.8614 11.3099C15.7841 11.2213 15.6854 11.154 15.5749 11.1143C15.4274 11.0597 15.2714 11.0314 15.1142 11.0307C14.9938 11.0288 14.8734 11.0288 14.753 11.0288H14.7318ZM15.0348 12.4949C15.0322 12.494 15.0294 12.4931 15.0264 12.4931L15.0252 11.312C15.036 11.3116 15.0468 11.3111 15.0575 11.3106C15.0858 11.3093 15.114 11.308 15.1422 11.308C15.2535 11.3065 15.3637 11.3304 15.4645 11.3778C15.5242 11.4055 15.5774 11.4456 15.6207 11.4954C15.6639 11.5451 15.6961 11.6035 15.7152 11.6666C15.7731 11.841 15.765 12.0306 15.6925 12.1993C15.667 12.2613 15.6277 12.3165 15.5775 12.3607C15.5273 12.405 15.4677 12.437 15.4032 12.4545C15.2923 12.488 15.1766 12.5026 15.061 12.4978C15.0567 12.4968 15.0512 12.4967 15.0466 12.4966C15.0438 12.4965 15.0398 12.4962 15.0398 12.4962L15.0386 12.496L15.0373 12.4957L15.0348 12.4949ZM17.5561 12.7794V12.0496L18.2813 12.0487V11.7568H17.558V11.3201H18.4291V11.0288H17.2637V12.7794H17.5561ZM14.3815 11.6535C14.3818 11.7826 14.3438 11.9088 14.2724 12.0162C14.2011 12.1237 14.0995 12.2075 13.9806 12.257C13.8617 12.3065 13.7308 12.3195 13.6045 12.2944C13.4782 12.2693 13.3622 12.2072 13.2711 12.116C13.1801 12.0247 13.1181 11.9085 13.093 11.7819C13.0679 11.6553 13.0808 11.524 13.1302 11.4048C13.1795 11.2856 13.263 11.1837 13.3702 11.1121C13.4773 11.0405 13.6032 11.0024 13.7319 11.0026C13.9037 11.004 14.0681 11.073 14.1896 11.1948C14.3111 11.3165 14.3801 11.4813 14.3815 11.6535ZM14.0903 11.6535C14.0913 11.6061 14.0828 11.559 14.0653 11.515C14.0478 11.471 14.0216 11.431 13.9884 11.3973C13.9551 11.3637 13.9154 11.337 13.8717 11.3191C13.828 11.3011 13.7811 11.2921 13.7338 11.2927C13.6864 11.292 13.6393 11.3009 13.5954 11.3186C13.5514 11.3364 13.5113 11.3627 13.4776 11.3961C13.4439 11.4295 13.4171 11.4693 13.3988 11.5132C13.3805 11.557 13.3711 11.6041 13.3711 11.6516C13.3716 11.7464 13.4091 11.8372 13.4754 11.9048C13.5418 11.9723 13.6318 12.0111 13.7263 12.0131C13.7739 12.014 13.8211 12.0054 13.8653 11.9878C13.9094 11.9702 13.9496 11.9439 13.9835 11.9105C14.0174 11.8771 14.0444 11.8372 14.0627 11.7932C14.081 11.7493 14.0904 11.7012 14.0903 11.6535ZM19.1735 12.7797H19.4669L19.4687 12.7489V11.9738C19.469 11.9585 19.4737 11.9437 19.4824 11.9311C19.6915 11.6363 19.9008 11.3417 20.1105 11.0472L20.1236 11.0273H20.1115H19.7823C19.7767 11.0272 19.7713 11.0287 19.7665 11.0316C19.7618 11.0346 19.758 11.0388 19.7556 11.0438C19.6156 11.2407 19.4755 11.4376 19.3353 11.6345C19.3329 11.6381 19.3302 11.6415 19.3273 11.6452C19.3257 11.6472 19.324 11.6493 19.3222 11.6517C19.3196 11.6482 19.3173 11.6452 19.315 11.6424C19.3124 11.639 19.3101 11.636 19.3079 11.6329L18.8863 11.0454C18.8838 11.04 18.8797 11.0354 18.8746 11.0323C18.8696 11.0291 18.8637 11.0275 18.8577 11.0276H18.5351C18.5294 11.0279 18.5236 11.0288 18.518 11.0301C18.5209 11.0342 18.5232 11.0376 18.5252 11.0408C18.5269 11.0434 18.5285 11.0458 18.5301 11.0482C18.7396 11.343 18.9491 11.6374 19.1586 11.9314C19.1687 11.945 19.1739 11.9616 19.1735 11.9785V12.7535V12.7797ZM16.2842 11.0285H16.9649V11.2946H16.772V12.5125H16.9748V12.7794H16.2727V12.5134H16.4749V11.2971H16.2842V11.0285ZM14.3007 12.7801V12.491H13.1463V12.7801H14.3007Z" fill="white"/>
</svg>
