<svg width="24" height="24" viewBox="0 0 24 24" fill="none" xmlns="http://www.w3.org/2000/svg">
<path fill-rule="evenodd" clip-rule="evenodd" d="M15.5025 16.3817C16.1767 15.7075 17.1399 15.2259 18.1993 15.2259C20.3182 15.2259 22.0519 16.9596 22.0519 19.0785C22.0519 21.1974 20.3182 22.9311 18.1993 22.9311C16.0804 22.9311 14.3468 21.1974 14.3468 19.0785C14.3468 18.8859 14.3708 18.7173 14.3949 18.5488L14.3949 18.5487C14.419 18.3802 14.4431 18.2117 14.4431 18.019L9.33842 15.0333C8.66423 15.7075 7.70108 16.1891 6.64163 16.1891C4.52272 16.1891 2.78906 14.4554 2.78906 12.3365C2.78906 10.2176 4.52272 8.48393 6.64163 8.48393C7.70108 8.48393 8.66423 8.9655 9.33842 9.6397L14.5394 6.65396C14.5229 6.58786 14.5063 6.5246 14.4903 6.46319C14.4129 6.16672 14.3468 5.91366 14.3468 5.59451C14.3468 3.4756 16.0804 1.74194 18.1993 1.74194C20.3182 1.74194 22.0519 3.4756 22.0519 5.59451C22.0519 7.71342 20.3182 9.44708 18.1993 9.44708C17.1399 9.44708 16.1767 8.9655 15.4062 8.29131L10.3016 11.277C10.3181 11.3431 10.3346 11.4064 10.3507 11.4678C10.4281 11.7643 10.4942 12.0173 10.4942 12.3365C10.4942 12.5291 10.4701 12.6977 10.446 12.8662L10.446 12.8662C10.422 13.0348 10.3979 13.2033 10.3979 13.396L15.5025 16.3817ZM20.1256 5.59451C20.1256 4.53505 19.2588 3.66823 18.1993 3.66823C17.1399 3.66823 16.273 4.53505 16.273 5.59451C16.273 6.65397 17.1399 7.52079 18.1993 7.52079C19.2588 7.52079 20.1256 6.65397 20.1256 5.59451ZM6.64163 14.2628C5.58217 14.2628 4.71535 13.396 4.71535 12.3365C4.71535 11.277 5.58217 10.4102 6.64163 10.4102C7.70108 10.4102 8.56791 11.277 8.56791 12.3365C8.56791 13.396 7.70108 14.2628 6.64163 14.2628ZM16.273 19.0785C16.273 20.1379 17.1399 21.0048 18.1993 21.0048C19.2588 21.0048 20.1256 20.1379 20.1256 19.0785C20.1256 18.019 19.2588 17.1522 18.1993 17.1522C17.5251 17.1522 16.8509 17.5375 16.562 18.1154C16.3694 18.4043 16.273 18.6932 16.273 19.0785Z" fill="#6B717B"/>
<mask id="mask0_3199_68236" style="mask-type:alpha" maskUnits="userSpaceOnUse" x="2" y="1" width="21" height="22">
<path fill-rule="evenodd" clip-rule="evenodd" d="M15.5025 16.3817C16.1767 15.7075 17.1399 15.2259 18.1993 15.2259C20.3182 15.2259 22.0519 16.9596 22.0519 19.0785C22.0519 21.1974 20.3182 22.9311 18.1993 22.9311C16.0804 22.9311 14.3468 21.1974 14.3468 19.0785C14.3468 18.8859 14.3708 18.7173 14.3949 18.5488L14.3949 18.5487C14.419 18.3802 14.4431 18.2117 14.4431 18.019L9.33842 15.0333C8.66423 15.7075 7.70108 16.1891 6.64163 16.1891C4.52272 16.1891 2.78906 14.4554 2.78906 12.3365C2.78906 10.2176 4.52272 8.48393 6.64163 8.48393C7.70108 8.48393 8.66423 8.9655 9.33842 9.6397L14.5394 6.65396C14.5229 6.58786 14.5063 6.5246 14.4903 6.46319C14.4129 6.16672 14.3468 5.91366 14.3468 5.59451C14.3468 3.4756 16.0804 1.74194 18.1993 1.74194C20.3182 1.74194 22.0519 3.4756 22.0519 5.59451C22.0519 7.71342 20.3182 9.44708 18.1993 9.44708C17.1399 9.44708 16.1767 8.9655 15.4062 8.29131L10.3016 11.277C10.3181 11.3431 10.3346 11.4064 10.3507 11.4678C10.4281 11.7643 10.4942 12.0173 10.4942 12.3365C10.4942 12.5291 10.4701 12.6977 10.446 12.8662L10.446 12.8662C10.422 13.0348 10.3979 13.2033 10.3979 13.396L15.5025 16.3817ZM20.1256 5.59451C20.1256 4.53505 19.2588 3.66823 18.1993 3.66823C17.1399 3.66823 16.273 4.53505 16.273 5.59451C16.273 6.65397 17.1399 7.52079 18.1993 7.52079C19.2588 7.52079 20.1256 6.65397 20.1256 5.59451ZM6.64163 14.2628C5.58217 14.2628 4.71535 13.396 4.71535 12.3365C4.71535 11.277 5.58217 10.4102 6.64163 10.4102C7.70108 10.4102 8.56791 11.277 8.56791 12.3365C8.56791 13.396 7.70108 14.2628 6.64163 14.2628ZM16.273 19.0785C16.273 20.1379 17.1399 21.0048 18.1993 21.0048C19.2588 21.0048 20.1256 20.1379 20.1256 19.0785C20.1256 18.019 19.2588 17.1522 18.1993 17.1522C17.5251 17.1522 16.8509 17.5375 16.562 18.1154C16.3694 18.4043 16.273 18.6932 16.273 19.0785Z" fill="white"/>
</mask>
<g mask="url(#mask0_3199_68236)">
<rect x="0.863281" y="0.778809" width="23.1154" height="23.1154" fill="#6B717B"/>
</g>
</svg>
