<svg width="201" height="22" viewBox="0 0 201 22" fill="none" xmlns="http://www.w3.org/2000/svg">
<path fill-rule="evenodd" clip-rule="evenodd" d="M106.585 16.4012L109.22 18.8731C107.866 20.2346 106.15 21.1975 104.265 21.6525C100.584 22.4916 97.2083 21.8309 94.2675 19.454C92.4118 17.9403 91.1729 15.8249 90.7759 13.4927C90.2628 11.1217 90.4899 8.65447 91.4277 6.41136C92.933 2.91433 95.6332 0.825988 99.4546 0.19189C101.066 -0.113563 102.728 -0.0537071 104.312 0.366867C105.897 0.787441 107.362 1.55756 108.595 2.61817C108.728 2.7285 108.855 2.84546 108.979 2.96029C109.043 3.01934 109.106 3.07782 109.169 3.13456L106.616 5.64057C106.482 5.5262 106.33 5.39892 106.182 5.27493L106.176 5.26963C106.129 5.23076 106.083 5.19224 106.038 5.15456C104.623 4.04648 102.835 3.4966 101.026 3.61298C99.5143 3.6498 98.0554 4.16391 96.8669 5.07862C95.5863 6.09792 94.7275 7.53757 94.4499 9.13001C94.0727 10.768 94.1982 12.4786 94.8107 14.0471C95.8427 16.5531 97.7631 17.9846 100.49 18.3415C101.579 18.5052 102.692 18.4189 103.741 18.0894C104.79 17.7599 105.747 17.1963 106.535 16.443L106.585 16.4012ZM70.675 15.2566C70.675 19.2417 67.4875 21.4127 64.0573 21.4127C60.3841 21.3235 57.4699 19.2417 57.4092 15.3458H60.9609C61.0216 17.0707 62.4787 17.9332 64.0573 17.9332C65.6965 17.9332 67.1536 16.8923 67.1536 15.2566C67.1536 13.502 65.484 12.4313 64.0573 12.3719C63.8751 12.3719 62.418 12.3719 60.8698 11.6879C58.6538 10.6767 57.4092 8.83284 57.4092 6.36445C57.4092 2.40906 60.627 0.000143714 64.0573 0.000143714C67.7304 0.000143714 70.5536 2.4388 70.6143 5.97783H67.0929C67.0322 4.25292 65.6661 3.47969 64.0573 3.47969C62.3876 3.47969 60.9609 4.43136 60.9609 6.36445C60.9609 8.08935 62.4787 9.01128 64.0573 9.01128C64.209 9.01128 65.6965 9.01128 67.2143 9.69529C69.4607 10.7064 70.675 12.7882 70.675 15.2566ZM3.63765 17.6358V0.297541H0.0859375V21.1153H11.5V17.6358H3.63765ZM30.381 3.77709V0.297541H16.2045V21.1153H30.381V17.6358H19.7563V12.4313H28.59V8.98154H19.7563V3.77709H30.381ZM33.1705 0.297541H45.6167V3.47969H41.1543V21.1153H37.6329V3.47969H33.1705V0.297541ZM48.282 7.43507V0.297542L51.9248 0.297542V7.43508L48.282 7.43507ZM132.847 0.351212V21.6599C132.859 21.6623 132.871 21.665 132.883 21.6677C132.91 21.6738 132.938 21.6801 132.967 21.6827C133.569 21.6753 134.169 21.6797 134.769 21.6842C136.311 21.6956 137.848 21.707 139.384 21.5156C140.692 21.3873 141.976 21.0924 143.206 20.6385C145.991 19.5222 147.931 17.6085 148.777 14.7684C149.469 12.4155 149.502 9.92397 148.874 7.5541C148.566 6.1528 147.899 4.85143 146.934 3.77309C145.969 2.69474 144.739 1.87507 143.361 1.39159C141.521 0.726955 139.576 0.38256 137.615 0.373993C136.114 0.351212 134.612 0.351212 133.111 0.351212H132.847ZM136.626 18.1996C136.593 18.1892 136.559 18.1781 136.521 18.1781L136.506 3.79888C136.64 3.79365 136.775 3.78754 136.909 3.78145C137.262 3.76546 137.613 3.74952 137.964 3.74952C139.353 3.73203 140.727 4.02282 141.984 4.60005C142.729 4.93712 143.393 5.42466 143.931 6.03063C144.47 6.63661 144.872 7.34731 145.111 8.11606C145.833 10.2386 145.732 12.5469 144.827 14.6013C144.51 15.3552 144.019 16.0274 143.393 16.566C142.768 17.1046 142.024 17.4951 141.219 17.7073C139.837 18.1151 138.394 18.2935 136.952 18.235C136.899 18.2233 136.83 18.2217 136.773 18.2204C136.738 18.2196 136.707 18.2189 136.688 18.2161C136.683 18.2153 136.678 18.2143 136.673 18.2132C136.67 18.2124 136.666 18.2116 136.663 18.2108C136.661 18.2102 136.659 18.2096 136.656 18.209C136.646 18.2062 136.636 18.2029 136.626 18.1996ZM168.068 21.6637V12.7788L177.111 12.7674V9.21339H168.091V3.89761H178.954V0.351212H164.421V21.6637H168.068ZM128.479 7.95599C128.482 9.52741 128.008 11.0644 127.118 12.3723C126.228 13.6801 124.962 14.7001 123.479 15.3031C121.996 15.906 120.364 16.0647 118.789 15.7591C117.214 15.4536 115.767 14.6975 114.632 13.5866C113.496 12.4757 112.723 11.06 112.41 9.5187C112.097 7.97743 112.258 6.37992 112.874 4.92848C113.489 3.47704 114.53 2.23695 115.866 1.36524C117.202 0.493539 118.772 0.0294231 120.378 0.0316748C122.52 0.048533 124.57 0.88871 126.086 2.37106C127.601 3.85342 128.46 5.8592 128.479 7.95599ZM124.847 7.95599C124.86 7.37925 124.754 6.80593 124.535 6.27014C124.317 5.73435 123.991 5.24703 123.576 4.83717C123.161 4.42731 122.666 4.10329 122.121 3.88438C121.575 3.66546 120.991 3.55613 120.401 3.56288C119.81 3.55533 119.223 3.66281 118.675 3.87906C118.126 4.09531 117.627 4.41603 117.206 4.82261C116.785 5.22918 116.451 5.71352 116.223 6.2475C115.995 6.78148 115.878 7.35447 115.878 7.93321C115.885 9.08717 116.351 10.1929 117.179 11.0149C118.007 11.8369 119.129 12.3102 120.308 12.3339C120.901 12.345 121.49 12.2403 122.041 12.0257C122.591 11.8112 123.093 11.4912 123.516 11.0845C123.938 10.6778 124.274 10.1926 124.503 9.65735C124.731 9.12209 124.849 8.54754 124.847 7.96738V7.95599ZM188.238 21.6674H191.896L191.919 21.2914V11.8559C191.923 11.6698 191.982 11.4888 192.09 11.3357C194.697 7.74632 197.308 4.15943 199.923 0.575067L200.086 0.33206H199.935H195.83C195.761 0.331042 195.692 0.349436 195.633 0.385084C195.574 0.420733 195.527 0.472154 195.496 0.5333C193.751 2.93047 192.003 5.32763 190.255 7.72479C190.225 7.76887 190.192 7.80979 190.155 7.85467C190.135 7.87939 190.114 7.90531 190.092 7.93363C190.06 7.89182 190.03 7.8548 190.003 7.82039C189.971 7.77979 189.941 7.7428 189.914 7.70582L184.657 0.55228C184.625 0.48649 184.574 0.431103 184.511 0.392726C184.448 0.35435 184.374 0.334609 184.3 0.335855H180.277C180.205 0.340108 180.133 0.35027 180.063 0.366232C180.1 0.416239 180.128 0.458243 180.153 0.496636C180.174 0.528204 180.194 0.557331 180.215 0.586458C182.827 4.17588 185.439 7.76023 188.051 11.3395C188.178 11.5046 188.243 11.7067 188.238 11.9129V21.3484V21.6674ZM152.206 0.347373H160.695V3.58621H158.289V18.4135H160.819V21.6637H152.062V18.4248H154.584V3.61658H152.206V0.347373ZM127.471 21.6715V18.1517H113.074V21.6715H127.471Z" fill="#2563EB"/>
</svg>
